<svg width="13" height="15" viewBox="0 0 13 15" fill="none" xmlns="http://www.w3.org/2000/svg">
<path fill-rule="evenodd" clip-rule="evenodd" d="M10.875 1.875H11.5C12.1875 1.875 12.75 2.4375 12.75 3.125V13.125C12.75 13.8125 12.1875 14.375 11.5 14.375H1.5C0.8125 14.375 0.25 13.8125 0.25 13.125V3.125C0.25 2.4375 0.8125 1.875 1.5 1.875H2.125V1.25C2.125 0.90625 2.40625 0.625 2.75 0.625C3.09375 0.625 3.375 0.90625 3.375 1.25V1.875H9.625V1.25C9.625 0.90625 9.90625 0.625 10.25 0.625C10.5938 0.625 10.875 0.90625 10.875 1.25V1.875ZM2.12498 13.125H10.875C11.2187 13.125 11.5 12.8437 11.5 12.5V4.99999H1.49998V12.5C1.49998 12.8437 1.78123 13.125 2.12498 13.125Z" fill="#999EA3"/>
</svg>
